<svg width="18" height="18" viewBox="0 0 18 18" fill="none" xmlns="http://www.w3.org/2000/svg">
<path d="M13.4501 3.55001C13.2523 3.55001 13.059 3.60865 12.8945 3.71854C12.7301 3.82842 12.6019 3.9846 12.5262 4.16732C12.4505 4.35005 12.4307 4.55111 12.4693 4.7451C12.5079 4.93908 12.6031 5.11726 12.743 5.25711C12.8828 5.39696 13.061 5.49221 13.255 5.53079C13.449 5.56938 13.65 5.54957 13.8328 5.47388C14.0155 5.3982 14.1717 5.27002 14.2816 5.10558C14.3914 4.94113 14.4501 4.74779 14.4501 4.55001C14.4501 4.28479 14.3447 4.03043 14.1572 3.8429C13.9697 3.65536 13.7153 3.55001 13.4501 3.55001V3.55001ZM17.2834 5.56667C17.2672 4.87525 17.1377 4.19117 16.9001 3.54167C16.6882 2.98595 16.3584 2.48274 15.9334 2.06667C15.5208 1.63953 15.0164 1.31182 14.4584 1.10834C13.8106 0.863472 13.1258 0.731013 12.4334 0.716672C11.5501 0.666672 11.2667 0.666672 9.00008 0.666672C6.73341 0.666672 6.45008 0.666672 5.56675 0.716672C4.87438 0.731013 4.18953 0.863472 3.54175 1.10834C2.98481 1.31388 2.48086 1.64131 2.06675 2.06667C1.6396 2.47932 1.3119 2.9837 1.10841 3.54167C0.863549 4.18946 0.73109 4.8743 0.716748 5.56667C0.666748 6.45001 0.666748 6.73334 0.666748 9.00001C0.666748 11.2667 0.666748 11.55 0.716748 12.4333C0.73109 13.1257 0.863549 13.8106 1.10841 14.4583C1.3119 15.0163 1.6396 15.5207 2.06675 15.9333C2.48086 16.3587 2.98481 16.6861 3.54175 16.8917C4.18953 17.1365 4.87438 17.269 5.56675 17.2833C6.45008 17.3333 6.73341 17.3333 9.00008 17.3333C11.2667 17.3333 11.5501 17.3333 12.4334 17.2833C13.1258 17.269 13.8106 17.1365 14.4584 16.8917C15.0164 16.6882 15.5208 16.3605 15.9334 15.9333C16.3603 15.5188 16.6904 15.0152 16.9001 14.4583C17.1377 13.8088 17.2672 13.1248 17.2834 12.4333C17.2834 11.55 17.3334 11.2667 17.3334 9.00001C17.3334 6.73334 17.3334 6.45001 17.2834 5.56667V5.56667ZM15.7834 12.3333C15.7773 12.8623 15.6815 13.3864 15.5001 13.8833C15.367 14.246 15.1533 14.5737 14.8751 14.8417C14.6048 15.1171 14.2778 15.3304 13.9167 15.4667C13.4198 15.6481 12.8957 15.7439 12.3667 15.75C11.5334 15.7917 11.2251 15.8 9.03342 15.8C6.84175 15.8 6.53341 15.8 5.70008 15.75C5.15082 15.7603 4.60391 15.6757 4.08341 15.5C3.73823 15.3567 3.42621 15.144 3.16675 14.875C2.89016 14.6073 2.67912 14.2793 2.55008 13.9167C2.34663 13.4126 2.23378 12.8766 2.21675 12.3333C2.21675 11.5 2.16675 11.1917 2.16675 9.00001C2.16675 6.80834 2.16675 6.50001 2.21675 5.66667C2.22048 5.12588 2.31921 4.58996 2.50841 4.08334C2.65512 3.7316 2.8803 3.41805 3.16675 3.16667C3.41993 2.88015 3.73282 2.65258 4.08341 2.50001C4.59137 2.31671 5.12675 2.2209 5.66675 2.21667C6.50008 2.21667 6.80841 2.16667 9.00008 2.16667C11.1917 2.16667 11.5001 2.16667 12.3334 2.21667C12.8624 2.22274 13.3865 2.31854 13.8834 2.50001C14.2621 2.64055 14.602 2.86904 14.8751 3.16667C15.1482 3.42265 15.3615 3.73562 15.5001 4.08334C15.6853 4.59078 15.7812 5.12649 15.7834 5.66667C15.8251 6.50001 15.8334 6.80834 15.8334 9.00001C15.8334 11.1917 15.8251 11.5 15.7834 12.3333ZM9.00008 4.72501C8.15492 4.72665 7.32922 4.97878 6.62729 5.44952C5.92537 5.92026 5.37873 6.5885 5.05644 7.3698C4.73416 8.1511 4.65068 9.01039 4.81658 9.83911C4.98247 10.6678 5.39028 11.4288 5.98848 12.0258C6.58668 12.6229 7.34842 13.0292 8.17746 13.1935C9.00651 13.3577 9.86564 13.2726 10.6463 12.9488C11.427 12.625 12.0941 12.077 12.5635 11.3742C13.0329 10.6714 13.2834 9.84517 13.2834 9.00001C13.2845 8.43759 13.1744 7.88051 12.9594 7.3608C12.7445 6.84109 12.4289 6.36901 12.0308 5.97171C11.6327 5.57442 11.16 5.25974 10.6399 5.04578C10.1198 4.83182 9.56249 4.72281 9.00008 4.72501V4.72501ZM9.00008 11.775C8.45124 11.775 7.91472 11.6123 7.45837 11.3073C7.00203 11.0024 6.64635 10.569 6.43632 10.062C6.22628 9.55489 6.17133 8.99693 6.2784 8.45863C6.38548 7.92033 6.64977 7.42587 7.03786 7.03778C7.42595 6.64969 7.92041 6.3854 8.45871 6.27833C8.997 6.17125 9.55496 6.22621 10.062 6.43624C10.5691 6.64627 11.0025 7.00195 11.3074 7.4583C11.6123 7.91464 11.7751 8.45116 11.7751 9.00001C11.7751 9.36442 11.7033 9.72527 11.5638 10.062C11.4244 10.3986 11.22 10.7045 10.9623 10.9622C10.7046 11.2199 10.3987 11.4243 10.062 11.5638C9.72535 11.7032 9.3645 11.775 9.00008 11.775V11.775Z" fill="#0B473B"/>
</svg>
