<svg width="19" height="19" viewBox="0 0 19 19" fill="none" xmlns="http://www.w3.org/2000/svg">
<path d="M13.5832 6.49916C12.8371 6.49884 12.1026 6.68338 11.4453 7.03627C11.3854 6.87829 11.2787 6.7423 11.1396 6.64636C11.0005 6.55043 10.8355 6.49909 10.6665 6.49916H7.33319C7.22373 6.4991 7.11534 6.52061 7.01421 6.56247C6.91308 6.60433 6.82119 6.66571 6.74379 6.7431C6.6664 6.8205 6.60502 6.91239 6.56316 7.01352C6.5213 7.11465 6.49979 7.22304 6.49985 7.3325V17.3325C6.49979 17.4419 6.5213 17.5503 6.56316 17.6515C6.60501 17.7526 6.66639 17.8445 6.74379 17.9219C6.82118 17.9993 6.91308 18.0607 7.01421 18.1025C7.11534 18.1444 7.22373 18.1659 7.33319 18.1658H10.6665C10.776 18.1659 10.8844 18.1444 10.9855 18.1025C11.0866 18.0607 11.1785 17.9993 11.2559 17.9219C11.3333 17.8445 11.3947 17.7526 11.4365 17.6515C11.4784 17.5503 11.4999 17.4419 11.4999 17.3325V12.7492C11.4999 12.5281 11.5877 12.3162 11.7439 12.1599C11.9002 12.0036 12.1122 11.9158 12.3332 11.9158C12.5542 11.9158 12.7662 12.0036 12.9224 12.1599C13.0787 12.3162 13.1665 12.5281 13.1665 12.7492V17.3325C13.1665 17.4419 13.188 17.5503 13.2298 17.6515C13.2717 17.7526 13.3331 17.8445 13.4105 17.9219C13.4879 17.9993 13.5797 18.0607 13.6809 18.1025C13.782 18.1444 13.8904 18.1659 13.9999 18.1658H17.3332C17.4426 18.1659 17.551 18.1444 17.6522 18.1025C17.7533 18.0607 17.8452 17.9993 17.9226 17.9219C18 17.8445 18.0614 17.7526 18.1032 17.6515C18.1451 17.5503 18.1666 17.4419 18.1665 17.3325V11.0825C18.165 9.86738 17.6816 8.70247 16.8224 7.84326C15.9632 6.98404 14.7983 6.50067 13.5832 6.49916V6.49916ZM16.4999 16.4992H14.8332V12.7492C14.8332 12.0861 14.5698 11.4502 14.101 10.9814C13.6321 10.5126 12.9962 10.2492 12.3332 10.2492C11.6701 10.2492 11.0343 10.5126 10.5654 10.9814C10.0966 11.4502 9.83319 12.0861 9.83319 12.7492V16.4992H8.16652V8.16583H9.83319V8.75177C9.83329 8.92444 9.887 9.09281 9.98689 9.23365C10.0868 9.37448 10.228 9.48082 10.3909 9.53799C10.5538 9.59516 10.7305 9.60033 10.8965 9.55279C11.0625 9.50526 11.2096 9.40735 11.3176 9.2726C11.6915 8.79763 12.2045 8.4513 12.7848 8.28197C13.3652 8.11264 13.9839 8.12876 14.5546 8.32809C15.1254 8.52741 15.6196 8.89998 15.9683 9.39379C16.3171 9.88759 16.5029 10.478 16.4999 11.0825V16.4992ZM4.83319 6.49916H1.49985C1.3904 6.4991 1.28201 6.52061 1.18088 6.56247C1.07974 6.60433 0.987853 6.66571 0.910459 6.7431C0.833064 6.8205 0.771684 6.91239 0.729827 7.01352C0.68797 7.11465 0.666458 7.22304 0.66652 7.3325V17.3325C0.666457 17.4419 0.687968 17.5503 0.729825 17.6515C0.771681 17.7526 0.833062 17.8445 0.910456 17.9219C0.987851 17.9993 1.07974 18.0607 1.18088 18.1025C1.28201 18.1444 1.3904 18.1659 1.49985 18.1658H4.83319C4.94264 18.1659 5.05103 18.1444 5.15217 18.1025C5.2533 18.0607 5.34519 17.9993 5.42258 17.9219C5.49998 17.8445 5.56136 17.7526 5.60322 17.6515C5.64507 17.5503 5.66658 17.4419 5.66652 17.3325V7.3325C5.66658 7.22304 5.64507 7.11465 5.60321 7.01352C5.56136 6.91239 5.49998 6.8205 5.42258 6.7431C5.34519 6.66571 5.2533 6.60433 5.15216 6.56247C5.05103 6.52061 4.94264 6.4991 4.83319 6.49916V6.49916ZM3.99985 16.4992H2.33319V8.16583H3.99985V16.4992ZM3.17873 0.284996C2.81403 0.263165 2.4487 0.315743 2.10496 0.439533C1.76122 0.563322 1.44625 0.755736 1.1792 1.00507C0.912156 1.25441 0.698616 1.55546 0.551569 1.88991C0.404522 2.22437 0.327039 2.58523 0.323834 2.95057C0.320629 3.31591 0.391768 3.67808 0.532924 4.01506C0.674081 4.35205 0.882305 4.6568 1.14494 4.91078C1.40756 5.16476 1.71911 5.36267 2.06063 5.49248C2.40214 5.62228 2.76649 5.68126 3.13152 5.66583H3.15512C3.52078 5.68755 3.88704 5.63448 4.2315 5.50987C4.57596 5.38526 4.8914 5.19172 5.15854 4.94109C5.42568 4.69045 5.6389 4.38797 5.78519 4.05214C5.93148 3.71632 6.00776 3.35418 6.00937 2.98788C6.01097 2.62157 5.93788 2.25879 5.79454 1.92169C5.6512 1.58459 5.44063 1.28026 5.1757 1.02728C4.91077 0.774312 4.59705 0.578016 4.25369 0.450389C3.91033 0.322762 3.54456 0.266484 3.17872 0.284996H3.17873ZM3.15513 3.99916H3.13152C2.98741 4.01666 2.84122 4.00315 2.70276 3.95952C2.5643 3.91589 2.43677 3.84317 2.32872 3.74622C2.22067 3.64926 2.1346 3.53033 2.07628 3.39739C2.01796 3.26445 1.98874 3.12058 1.99058 2.97542C1.99058 2.35367 2.45689 1.95165 3.17873 1.95165C3.32431 1.93225 3.47236 1.94426 3.61291 1.98689C3.75346 2.02952 3.88324 2.10177 3.99351 2.19878C4.10378 2.29579 4.19198 2.4153 4.25218 2.54927C4.31237 2.68324 4.34316 2.82855 4.34246 2.97542C4.34246 3.59716 3.87615 3.99916 3.15513 3.99916Z" fill="#0B473B"/>
</svg>
