<svg width="70" height="76" viewBox="0 0 70 76" fill="none" xmlns="http://www.w3.org/2000/svg">
<path d="M62.2499 25.5001L21.9999 2.41673C19.8219 1.15907 17.3499 0.500226 14.8349 0.507134C12.3199 0.514042 9.85149 1.18645 7.68045 2.45606C5.50941 3.72568 3.71306 5.54727 2.47385 7.73581C1.23465 9.92435 0.59674 12.4019 0.624918 14.9167V61.2501C0.624918 65.0294 2.12625 68.654 4.79865 71.3263C7.47104 73.9987 11.0956 75.5001 14.8749 75.5001C17.3767 75.4958 19.8336 74.8349 21.9999 73.5834L62.2499 50.5001C64.4127 49.2484 66.2082 47.4499 67.4565 45.2852C68.7048 43.1205 69.3619 40.6656 69.3619 38.1667C69.3619 35.6679 68.7048 33.213 67.4565 31.0483C66.2082 28.8835 64.4127 27.0851 62.2499 25.8334V25.5001ZM58.0833 42.9584L17.8333 66.3751C16.9311 66.8863 15.9119 67.1551 14.8749 67.1551C13.838 67.1551 12.8187 66.8863 11.9166 66.3751C11.017 65.8557 10.27 65.1086 9.75068 64.209C9.23138 63.3093 8.95807 62.2888 8.95825 61.2501V14.7501C8.95807 13.7113 9.23138 12.6908 9.75068 11.7912C10.27 10.8915 11.017 10.1445 11.9166 9.62507C12.8224 9.12155 13.8387 8.84961 14.8749 8.8334C15.9105 8.85466 16.9255 9.12628 17.8333 9.62507L58.0833 32.8751C58.9832 33.3942 59.7305 34.1412 60.2502 35.0409C60.7698 35.9405 61.0434 36.9611 61.0434 38.0001C61.0434 39.039 60.7698 40.0596 60.2502 40.9593C59.7305 41.8589 58.9832 42.6059 58.0833 43.1251V42.9584Z" fill="#FCF0DE"/>
</svg>
