<svg width="20" height="14" viewBox="0 0 20 14" fill="none" xmlns="http://www.w3.org/2000/svg">
<path d="M19.1666 5.09167C19.2078 3.89888 18.947 2.71502 18.4083 1.65C18.0428 1.213 17.5355 0.918094 16.9749 0.816669C14.6562 0.606273 12.3279 0.520039 9.99994 0.558335C7.68048 0.518301 5.36053 0.601752 3.04994 0.808335C2.59312 0.891433 2.17037 1.1057 1.83327 1.425C1.08327 2.11667 0.999941 3.3 0.916608 4.3C0.795701 6.09797 0.795701 7.90203 0.916608 9.7C0.940716 10.2628 1.02452 10.8215 1.16661 11.3667C1.26709 11.7876 1.47038 12.177 1.75827 12.5C2.09766 12.8362 2.53026 13.0627 2.99994 13.15C4.79654 13.3718 6.60679 13.4637 8.41661 13.425C11.3333 13.4667 13.8916 13.425 16.9166 13.1917C17.3978 13.1097 17.8426 12.883 18.1916 12.5417C18.4249 12.3083 18.5992 12.0226 18.6999 11.7083C18.998 10.7938 19.1443 9.83676 19.1333 8.875C19.1666 8.40833 19.1666 5.59167 19.1666 5.09167ZM8.11661 9.375V4.21667L13.0499 6.80834C11.6666 7.575 9.84161 8.44167 8.11661 9.375Z" fill="#0B473B"/>
</svg>
